<svg xmlns="http://www.w3.org/2000/svg" width="22.86" height="21.947" viewBox="0 0 22.86 21.947">
  <g id="cog-line" transform="translate(-2 -2)">
    <path id="Path_120" data-name="Path 120" d="M16.79,11a5.69,5.69,0,1,0,5.69,5.69A5.655,5.655,0,0,0,16.79,11Zm0,9.754a4.064,4.064,0,1,1,4.064-4.064A4.025,4.025,0,0,1,16.79,20.754Z" transform="translate(-3.296 -3.717)"/>
    <path id="Path_121" data-name="Path 121" d="M24,10.71l-2-.617-.429-1.029,1-1.783a1.119,1.119,0,0,0-.214-1.3L20.645,4.332a1.239,1.239,0,0,0-1.357-.206l-1.857.96-1.072-.412-.643-1.92A1.157,1.157,0,0,0,14.644,2H12.215a.99.99,0,0,0-1,.823l-.643,1.92a3.238,3.238,0,0,0-1.143.412l-1.857-.96A1.239,1.239,0,0,0,6.215,4.4L4.5,6.046a1.119,1.119,0,0,0-.214,1.3l.929,1.715c-.143.343-.286.754-.429,1.1l-2,.617A1.121,1.121,0,0,0,2,11.807v2.332a1.1,1.1,0,0,0,.857,1.029l2,.617.429,1.029-1,1.783A1.119,1.119,0,0,0,4.5,19.9l1.714,1.646a1.239,1.239,0,0,0,1.357.206l1.857-.96L10.5,21.2l.643,1.989a1.157,1.157,0,0,0,1.072.754h2.429a1.157,1.157,0,0,0,1.072-.754l.643-1.989,1.072-.412,1.857.96a1.239,1.239,0,0,0,1.357-.206L22.36,19.9a1.119,1.119,0,0,0,.214-1.3l-1-1.783L22,15.785l2.072-.617a1.121,1.121,0,0,0,.786-1.029V11.807A1.181,1.181,0,0,0,24,10.71Zm-.571,3.223-2.572.754-.071.343-.643,1.44-.214.343,1.286,2.263-1.429,1.372L17.43,19.215l-.357.206a6.935,6.935,0,0,1-1.5.617l-.357.069-.786,2.469h-2l-.786-2.469-.357-.069-1.5-.617-.357-.206L7.072,20.449,5.643,19.077l1.286-2.263-.214-.343a6.376,6.376,0,0,1-.643-1.44L6,14.688l-2.572-.754v-1.92l2.429-.686L6,10.984a5.693,5.693,0,0,1,.643-1.509l.214-.343L5.643,6.869,7.072,5.5,9.358,6.732l.357-.206a6.208,6.208,0,0,1,1.572-.617l.357-.137.786-2.4h2l.786,2.4.357.137a6.935,6.935,0,0,1,1.5.617l.357.206L19.788,5.5l1.429,1.372L19.931,9.133l.214.343a6.376,6.376,0,0,1,.643,1.44l.071.343,2.572.754Z"/>
  </g>
</svg>
