<svg xmlns="http://www.w3.org/2000/svg" width="25.527" height="21.051" viewBox="0 0 25.527 21.051">
  <g id="dashboard-line" transform="translate(-1.125 -4.05)">
    <path id="Path_122" data-name="Path 122" d="M22.637,12.32,18.2,16.683a2.253,2.253,0,1,0,1.059,1.066L23.7,13.386Z" transform="translate(-3.356 -2.01)" fill="#234e52" stroke="#234e52" stroke-width="0.4"/>
    <path id="Path_123" data-name="Path 123" d="M13.889,4.25A12.383,12.383,0,0,0,4.426,24.639l.225.263H23.125l.225-.263A12.383,12.383,0,0,0,13.889,4.25ZM22.4,23.4H5.373a10.836,10.836,0,0,1-2.335-5.888H5.628v-1.5H3.037A10.821,10.821,0,0,1,5.628,9.537l1.84,1.84,1.059-1.059L6.7,8.47a10.821,10.821,0,0,1,6.436-2.688V8.41h1.5V5.789A10.866,10.866,0,0,1,24.7,16.01H22.089v1.5H24.74A10.836,10.836,0,0,1,22.4,23.4Z" transform="translate(0 0)" fill="#234e52" stroke="#234e52" stroke-width="0.4"/>
  </g>
</svg>
