<svg xmlns="http://www.w3.org/2000/svg" width="30" height="21" viewBox="0 0 30 21">
  <g id="menu-left" transform="translate(-3 -7.5)">
    <path id="Path_124" data-name="Path 124" d="M3,8.992A1.492,1.492,0,0,1,4.492,7.5H16.507a1.493,1.493,0,1,1,0,2.985H4.492A1.492,1.492,0,0,1,3,8.992Z" fill="#413e3e"/>
    <path id="Path_125" data-name="Path 125" d="M3,18a1.492,1.492,0,0,1,1.492-1.492H31.507a1.493,1.493,0,0,1,0,2.985H4.492A1.492,1.492,0,0,1,3,18Z" fill="#413e3e"/>
    <path id="Path_126" data-name="Path 126" d="M4.492,25.515a1.492,1.492,0,1,0,0,2.985H22.507a1.493,1.493,0,0,0,0-2.985Z" fill="#413e3e"/>
  </g>
</svg>
