<svg xmlns="http://www.w3.org/2000/svg" width="29.83" height="31.558" viewBox="0 0 29.83 31.558">
  <g id="cog" transform="translate(-1.287 -1.125)">
    <path id="Path_108" data-name="Path 108" d="M17.237,11.813A6.188,6.188,0,1,0,23.425,18a6.188,6.188,0,0,0-6.188-6.188Zm0,10.125A3.938,3.938,0,1,1,21.175,18,3.938,3.938,0,0,1,17.237,21.938Z" transform="translate(-1.036 -1.096)" fill="#9a9e9f"/>
    <path id="Path_109" data-name="Path 109" d="M30.636,21.264l-2.089-1.72a12.694,12.694,0,0,0,0-5.281l2.089-1.72a1.311,1.311,0,0,0,.3-1.673L28.795,7.158a1.311,1.311,0,0,0-1.6-.574l-2.535.95a12.626,12.626,0,0,0-4.572-2.642l-.445-2.668a1.311,1.311,0,0,0-1.3-1.1H14.057a1.311,1.311,0,0,0-1.3,1.1l-.444,2.668A12.625,12.625,0,0,0,7.744,7.534l-2.535-.95a1.311,1.311,0,0,0-1.6.574L1.465,10.871a1.311,1.311,0,0,0,.3,1.673l2.089,1.72a12.694,12.694,0,0,0,0,5.281l-2.089,1.72a1.311,1.311,0,0,0-.3,1.673L3.609,26.65a1.311,1.311,0,0,0,1.6.574l2.535-.95a12.625,12.625,0,0,0,4.572,2.642l.444,2.668a1.311,1.311,0,0,0,1.3,1.1h4.288a1.311,1.311,0,0,0,1.3-1.1l.445-2.668a12.626,12.626,0,0,0,4.572-2.642l2.536.95a1.311,1.311,0,0,0,1.6-.574l2.144-3.714a1.311,1.311,0,0,0-.3-1.672ZM27.307,25.02l-3.163-1.185-.479.482a10.517,10.517,0,0,1-4.774,2.759l-.657.173-.555,3.33H14.727l-.555-3.33-.657-.173a10.517,10.517,0,0,1-4.774-2.759l-.479-.482L5.1,25.02,3.621,22.464l2.605-2.145-.178-.655a10.578,10.578,0,0,1,0-5.518l.178-.655L3.621,11.344,5.1,8.788,8.26,9.973l.479-.482a10.517,10.517,0,0,1,4.774-2.759l.657-.173.555-3.329h2.952l.555,3.33.657.173a10.517,10.517,0,0,1,4.774,2.759l.479.482,3.163-1.185,1.476,2.556L26.177,13.49l.178.655a10.578,10.578,0,0,1,0,5.518l-.178.655,2.605,2.145Z" transform="translate(0 0)" fill="#9a9e9f"/>
  </g>
</svg>
