<svg xmlns="http://www.w3.org/2000/svg" width="21" height="21" viewBox="0 0 21 21">
  <g id="shopping-bag" transform="translate(-3 -3)">
    <path id="Path_117" data-name="Path 117" d="M6.15,5.1h14.7A1.05,1.05,0,0,1,21.9,6.15v14.7a1.05,1.05,0,0,1-1.05,1.05H6.15A1.05,1.05,0,0,1,5.1,20.85V6.15A1.05,1.05,0,0,1,6.15,5.1ZM3,6.15A3.15,3.15,0,0,1,6.15,3h14.7A3.15,3.15,0,0,1,24,6.15v14.7A3.15,3.15,0,0,1,20.85,24H6.15A3.15,3.15,0,0,1,3,20.85ZM13.5,13.5c-2.9,0-5.25-2.82-5.25-6.3h2.1c0,2.694,1.753,4.2,3.15,4.2s3.15-1.506,3.15-4.2h2.1C18.75,10.68,16.4,13.5,13.5,13.5Z" fill-rule="evenodd"/>
  </g>
</svg>
