<svg xmlns="http://www.w3.org/2000/svg" width="16.203" height="22.685" viewBox="0 0 16.203 22.685">
  <g id="user" transform="translate(-6.75 -2.25)">
    <path id="Path_118" data-name="Path 118" d="M15.8,3.87a4.051,4.051,0,1,1-4.051,4.051A4.051,4.051,0,0,1,15.8,3.87m0-1.62a5.671,5.671,0,1,0,5.671,5.671A5.671,5.671,0,0,0,15.8,2.25Z" transform="translate(-0.944)"/>
    <path id="Path_119" data-name="Path 119" d="M22.953,29.972h-1.62V25.921a4.051,4.051,0,0,0-4.051-4.051H12.421A4.051,4.051,0,0,0,8.37,25.921v4.051H6.75V25.921a5.671,5.671,0,0,1,5.671-5.671h4.861a5.671,5.671,0,0,1,5.671,5.671Z" transform="translate(0 -5.037)"/>
  </g>
</svg>
